<?xml version="1.0"?>
<svg xmlns="http://www.w3.org/2000/svg" xmlns:xlink="http://www.w3.org/1999/xlink" xmlns:svgjs="http://svgjs.com/svgjs" version="1.1" width="512" height="512" x="0" y="0" viewBox="0 0 238.792 238.792" style="enable-background:new 0 0 512 512" xml:space="preserve"><g>
<g xmlns="http://www.w3.org/2000/svg">
	<g>
		<path d="M20.152,60.958L0.05,229.833c-0.242,2.035,0.397,4.07,1.76,5.601c1.363,1.531,3.312,2.408,5.362,2.408h224.449    c2.049,0,4-0.877,5.362-2.408c1.363-1.53,1.998-3.575,1.76-5.601L218.638,60.958c-0.425-3.605-3.486-6.324-7.117-6.324h-32.138    C175.818,24.449,150.116,0.95,118.989,0.95S62.16,24.454,58.594,54.634H27.278C23.636,54.634,20.579,57.352,20.152,60.958z     M118.984,15.288c23.207,0,42.44,17.098,45.908,39.346H73.076C76.542,32.386,95.777,15.288,118.984,15.288z M65.296,68.971    h107.371h32.482l18.393,154.534H15.24L33.635,68.971H65.296z" fill="#000000" data-original="#000000" style=""/>
	</g>
</g>
<g xmlns="http://www.w3.org/2000/svg">
</g>
<g xmlns="http://www.w3.org/2000/svg">
</g>
<g xmlns="http://www.w3.org/2000/svg">
</g>
<g xmlns="http://www.w3.org/2000/svg">
</g>
<g xmlns="http://www.w3.org/2000/svg">
</g>
<g xmlns="http://www.w3.org/2000/svg">
</g>
<g xmlns="http://www.w3.org/2000/svg">
</g>
<g xmlns="http://www.w3.org/2000/svg">
</g>
<g xmlns="http://www.w3.org/2000/svg">
</g>
<g xmlns="http://www.w3.org/2000/svg">
</g>
<g xmlns="http://www.w3.org/2000/svg">
</g>
<g xmlns="http://www.w3.org/2000/svg">
</g>
<g xmlns="http://www.w3.org/2000/svg">
</g>
<g xmlns="http://www.w3.org/2000/svg">
</g>
<g xmlns="http://www.w3.org/2000/svg">
</g>
</g></svg>
